<?xml version="1.0" standalone="no"?>
<!DOCTYPE svg PUBLIC "-//W3C//DTD SVG 20010904//EN"
 "http://www.w3.org/TR/2001/REC-SVG-20010904/DTD/svg10.dtd">
<svg version="1.0" xmlns="http://www.w3.org/2000/svg"
 width="24.000000pt" height="24.000000pt" viewBox="0 0 24.000000 24.000000"
 preserveAspectRatio="xMidYMid meet">

<g transform="translate(0.000000,24.000000) scale(0.100000,-0.100000)"
fill="#FFFFFF" stroke="none">
<path d="M70 220 c0 -5 23 -10 50 -10 28 0 50 5 50 10 0 6 -22 10 -50 10 -27
0 -50 -4 -50 -10z"/>
<path d="M22 208 c-8 -8 -12 -44 -11 -107 0 -53 3 -90 6 -83 7 17 199 17 206
0 3 -7 6 30 6 83 1 74 -2 99 -14 109 -10 9 -15 9 -15 1 0 -14 -157 -15 -162
-1 -2 7 -8 6 -16 -2z m198 -42 c0 -8 -4 -18 -10 -21 -5 -3 -10 -11 -10 -16 0
-6 3 -8 8 -5 4 2 7 -16 8 -40 l0 -44 -96 2 -95 3 -2 30 c-2 25 -1 26 6 10 5
-11 6 -24 4 -28 -3 -5 10 -7 28 -5 22 2 33 9 35 21 1 9 -4 17 -12 17 -8 0 -13
-5 -12 -11 5 -20 -22 -22 -28 -2 -3 10 -10 26 -15 35 -5 10 -9 29 -9 43 l0 25
100 0 c80 0 100 -3 100 -14z"/>
<path d="M30 153 c0 -8 6 -13 13 -12 26 3 35 -2 33 -18 -1 -12 8 -17 34 -17
25 -1 35 3 35 14 0 21 -29 24 -48 5 -14 -14 -16 -13 -14 12 2 24 -2 28 -25 28
-17 1 -28 -4 -28 -12z m110 -33 c0 -5 -7 -10 -15 -10 -8 0 -15 5 -15 10 0 6 7
10 15 10 8 0 15 -4 15 -10z"/>
<path d="M195 160 c3 -5 8 -10 11 -10 2 0 4 5 4 10 0 6 -5 10 -11 10 -5 0 -7
-4 -4 -10z"/>
<path d="M173 128 c-6 -13 -14 -31 -17 -41 -4 -13 -12 -17 -26 -12 -15 5 -20
2 -20 -10 0 -13 5 -15 18 -9 9 4 33 8 52 8 31 -1 32 0 12 9 -13 6 -22 19 -22
31 0 17 2 18 10 6 8 -12 10 -9 10 13 0 33 -3 34 -17 5z"/>
</g>
</svg>